<?xml version="1.0" standalone="no"?>
<!DOCTYPE svg PUBLIC "-//W3C//DTD SVG 20010904//EN"
 "http://www.w3.org/TR/2001/REC-SVG-20010904/DTD/svg10.dtd">
<svg version="1.0" xmlns="http://www.w3.org/2000/svg"
 width="1691.000000pt" height="881.000000pt" viewBox="0 0 1691.000000 881.000000"
 preserveAspectRatio="xMidYMid meet">
<metadata>
Created by potrace 1.16, written by Peter Selinger 2001-2019
</metadata>
<g transform="translate(0.000000,881.000000) scale(0.100000,-0.100000)"
fill="#000000" stroke="none">
<path d="M9480 7073 l0 -138 62 -29 c44 -20 85 -52 141 -108 43 -44 81 -78 83
-75 7 7 33 155 34 187 1 92 -84 196 -212 260 -44 22 -87 40 -94 40 -11 0 -14
-27 -14 -137z"/>
<path d="M8060 5707 c0 -2 9 -43 21 -93 29 -128 37 -351 15 -427 -28 -98 -113
-167 -204 -167 -107 0 -179 73 -249 254 -39 102 -56 126 -88 126 -71 0 -125
-180 -125 -415 0 -222 41 -397 136 -584 87 -171 220 -321 369 -416 135 -87
329 -165 407 -165 59 0 87 17 115 70 49 93 49 93 203 86 74 -4 171 -9 215 -12
112 -8 117 -3 127 122 6 84 10 101 27 113 20 13 30 61 13 61 -4 0 -6 16 -4 35
3 25 -1 42 -13 55 -14 15 -16 29 -11 64 6 41 10 45 54 64 26 11 59 23 74 27
37 9 68 41 68 71 0 35 -22 73 -70 119 -23 22 -58 62 -78 89 l-36 49 -1 226
c-1 189 -4 235 -19 281 -24 72 -102 193 -165 255 -57 55 -61 69 -29 86 53 28
471 -17 608 -66 158 -57 239 -122 295 -239 60 -127 69 -197 46 -371 -17 -129
-10 -155 79 -289 39 -58 70 -115 70 -129 0 -32 -22 -49 -98 -77 -80 -29 -95
-56 -68 -121 6 -13 -1 -19 -31 -27 -23 -6 -29 -10 -17 -11 44 -2 56 -51 13
-51 -36 0 -44 -41 -26 -128 24 -112 22 -146 -11 -182 -23 -27 -37 -33 -102
-41 -42 -5 -148 -7 -242 -3 l-168 7 0 -106 c0 -58 3 -113 6 -122 4 -9 25 -26
48 -38 36 -19 56 -22 166 -22 108 1 141 5 241 32 257 70 518 246 682 461 91
118 233 384 284 532 50 140 58 205 57 430 -1 228 -17 359 -61 503 l-26 87
-1249 0 c-686 0 -1248 -1 -1248 -3z"/>
<path d="M6842 3307 l-133 -60 -442 -616 c-243 -338 -443 -621 -445 -628 -3
-10 27 -13 136 -13 l140 0 -8 36 c-8 35 -4 42 144 242 l152 207 216 3 216 2 7
-65 c7 -60 5 -68 -16 -91 l-22 -24 267 0 268 0 -6 23 c-5 17 -106 1009 -106
1039 0 5 -53 8 -117 7 l-118 -1 -133 -61z m-58 -359 c3 -40 8 -137 12 -215 l7
-143 -172 0 -171 0 101 148 c56 81 122 177 147 215 25 37 50 67 57 67 8 0 15
-25 19 -72z"/>
<path d="M5080 3233 c0 -44 -28 -209 -78 -464 -76 -383 -79 -398 -108 -423
l-29 -25 228 -1 228 0 -19 28 c-10 15 -18 32 -16 37 1 6 5 31 9 58 l6 47 133
0 133 0 27 -60 c26 -57 26 -61 10 -85 l-16 -25 216 0 c119 0 216 2 216 4 0 3
-24 46 -54 98 l-54 93 42 36 c23 21 50 55 59 76 9 21 37 149 62 284 51 272 51
308 0 358 l-25 26 -485 3 -485 3 0 -68z m608 -143 c4 -39 -34 -328 -49 -378
-6 -17 -19 -37 -29 -42 -24 -13 -213 -13 -226 0 -7 7 -1 77 18 216 34 255 26
245 178 241 l105 -2 3 -35z"/>
<path d="M7577 3243 c3 -41 -18 -173 -70 -459 -64 -349 -77 -405 -100 -439
-15 -22 -27 -43 -27 -47 0 -5 101 -8 225 -8 124 0 225 4 225 8 0 5 -9 17 -20
27 -24 22 -25 43 -5 132 23 102 23 101 50 68 l23 -30 244 0 c242 0 244 0 293
26 86 44 97 69 161 372 62 296 64 335 18 378 l-26 24 -497 3 -497 3 3 -58z
m605 -94 c26 -7 40 -17 44 -33 9 -37 -62 -415 -82 -437 -16 -18 -30 -19 -133
-17 l-116 3 -3 26 c-4 33 56 406 69 431 5 10 22 20 37 24 15 3 32 7 37 9 23 8
112 4 147 -6z"/>
<path d="M11283 3293 l-93 -4 0 -62 c0 -38 -31 -216 -78 -454 -69 -342 -82
-397 -105 -427 -15 -19 -27 -37 -27 -40 0 -3 110 -6 245 -6 162 0 245 3 245
10 0 6 -7 21 -15 33 -13 21 -9 51 45 332 33 171 64 318 68 329 6 15 51 -35
242 -268 175 -213 234 -292 232 -309 -2 -12 -14 -44 -28 -70 -13 -27 -24 -51
-24 -53 0 -2 115 -4 255 -4 l255 0 -7 28 c-11 40 -10 41 72 482 51 273 82 416
95 438 11 18 20 35 20 38 0 2 -117 4 -261 4 l-260 0 17 -30 c18 -29 17 -35
-20 -242 -22 -117 -42 -221 -45 -231 -6 -15 -55 39 -226 247 l-219 266 -146
-2 c-80 -1 -187 -4 -237 -5z"/>
<path d="M8825 3271 c-56 -25 -111 -90 -130 -153 -19 -62 -86 -397 -110 -548
-16 -100 -16 -107 2 -159 11 -34 29 -62 46 -75 28 -21 38 -21 522 -21 271 0
497 3 501 7 9 10 84 382 84 420 0 15 -11 40 -24 55 l-24 28 -240 3 -239 4 -12
-77 c-17 -114 -22 -105 69 -105 44 0 80 -3 80 -7 -1 -5 -7 -33 -14 -63 l-13
-55 -158 0 c-147 0 -158 1 -170 20 -19 29 75 499 105 529 19 20 36 21 316 28
163 3 298 8 300 11 6 6 24 116 24 150 l0 27 -437 0 c-402 0 -441 -2 -478 -19z"/>
<path d="M10067 3274 c-70 -22 -130 -85 -152 -160 -38 -129 -115 -584 -115
-676 0 -54 19 -96 54 -119 17 -11 104 -15 482 -17 l461 -3 31 113 c17 61 30
114 28 115 -2 2 -56 -8 -120 -22 -100 -21 -143 -25 -288 -25 l-170 0 -29 29
c-30 31 -37 77 -23 150 l7 31 338 0 339 0 5 23 c3 12 21 105 41 207 44 228 44
285 -4 333 l-32 32 -403 2 c-333 2 -410 -1 -450 -13z m543 -211 c19 -25 21
-36 16 -90 -10 -100 4 -93 -182 -93 -129 0 -164 3 -164 13 0 36 23 135 36 155
22 34 48 41 166 41 105 1 107 1 128 -26z"/>
<path d="M6230 2085 c0 -108 1 -115 20 -115 17 0 20 7 20 40 0 39 1 40 35 40
30 0 37 -5 55 -40 14 -27 27 -40 40 -40 20 0 20 0 0 40 l-21 41 21 26 c28 36
26 77 -6 102 -21 17 -41 21 -95 21 l-69 0 0 -115z"/>
<path d="M6527 2193 c-7 -11 -97 -215 -97 -219 0 -2 9 -4 20 -4 12 0 25 10 32
25 10 22 17 25 69 25 54 0 59 -2 65 -25 4 -18 13 -25 30 -25 13 0 24 1 24 3 0
1 -22 52 -48 112 -37 84 -54 111 -69 113 -12 2 -23 0 -26 -5z"/>
<path d="M7050 2085 c0 -108 1 -115 20 -115 18 0 20 7 20 83 l0 82 81 -82 c45
-46 88 -83 95 -83 11 0 14 24 14 115 0 108 -1 115 -20 115 -18 0 -20 -7 -20
-82 l0 -83 -81 83 c-45 45 -88 82 -95 82 -11 0 -14 -24 -14 -115z"/>
<path d="M7368 2185 c-53 -30 -72 -99 -43 -155 23 -45 64 -61 145 -58 l70 3 0
53 c0 45 -3 52 -20 52 -16 0 -20 -7 -20 -34 0 -36 -16 -46 -70 -46 -69 1 -104
91 -55 144 29 32 72 34 108 6 20 -16 27 -17 36 -6 31 38 -96 72 -151 41z"/>
<path d="M7737 2193 c-7 -11 -97 -215 -97 -219 0 -2 9 -4 20 -4 12 0 25 10 32
25 10 22 17 25 69 25 54 0 59 -2 65 -25 4 -18 13 -25 30 -25 13 0 24 1 24 3 0
1 -22 52 -48 112 -37 84 -54 111 -69 113 -12 2 -23 0 -26 -5z"/>
<path d="M8000 2085 c0 -108 1 -115 20 -115 15 0 20 7 20 29 0 28 1 29 61 33
49 4 66 9 80 27 27 33 24 86 -6 116 -21 22 -33 25 -100 25 l-75 0 0 -115z"/>
<path d="M8230 2105 c0 -83 3 -98 21 -116 18 -18 30 -21 86 -17 86 5 93 15 93
135 0 86 -1 93 -20 93 -18 0 -20 -7 -20 -88 0 -99 -7 -112 -60 -112 -53 0 -60
13 -60 112 0 81 -2 88 -20 88 -19 0 -20 -7 -20 -95z"/>
<path d="M8480 2085 c0 -108 1 -115 20 -115 17 0 20 7 20 40 0 39 1 40 35 40
30 0 37 -5 55 -40 14 -27 27 -40 40 -40 20 0 20 0 0 40 l-21 41 21 26 c28 36
26 77 -6 102 -21 17 -41 21 -95 21 l-69 0 0 -115z"/>
<path d="M8700 2085 c0 -108 1 -115 20 -115 15 0 20 7 20 29 0 28 1 29 61 33
49 4 66 9 80 27 27 33 24 86 -6 116 -21 22 -33 25 -100 25 l-75 0 0 -115z"/>
<path d="M8994 2190 c-34 -13 -74 -69 -74 -102 0 -62 59 -118 125 -118 64 0
125 56 125 115 0 79 -97 137 -176 105z m89 -31 c25 -11 47 -47 47 -74 0 -68
-89 -110 -137 -65 -41 38 -42 92 -1 130 24 22 55 25 91 9z"/>
<path d="M9380 2085 l0 -115 85 0 c69 0 85 3 85 15 0 12 -14 15 -65 15 l-65 0
0 40 0 40 60 0 c47 0 60 3 60 15 0 12 -13 15 -60 15 l-60 0 0 30 0 30 60 0
c47 0 60 3 60 15 0 12 -16 15 -80 15 l-80 0 0 -115z"/>
<path d="M9580 2085 c0 -108 1 -115 20 -115 17 0 20 7 20 50 l0 50 60 0 c47 0
60 3 60 15 0 12 -13 15 -60 15 l-60 0 0 35 0 35 65 0 c51 0 65 3 65 15 0 12
-16 15 -85 15 l-85 0 0 -115z"/>
<path d="M9780 2105 c0 -83 3 -98 21 -116 18 -18 30 -21 86 -17 86 5 93 15 93
135 0 86 -1 93 -20 93 -18 0 -20 -7 -20 -88 0 -99 -7 -112 -60 -112 -53 0 -60
13 -60 112 0 81 -2 88 -20 88 -19 0 -20 -7 -20 -95z"/>
<path d="M10358 2185 c-53 -30 -72 -99 -43 -155 23 -45 64 -61 145 -58 l70 3
0 53 c0 45 -3 52 -20 52 -16 0 -20 -7 -20 -34 0 -36 -16 -46 -70 -46 -69 1
-104 91 -55 144 29 32 72 34 108 6 20 -16 27 -17 36 -6 31 38 -96 72 -151 41z"/>
<path d="M10560 2085 l0 -115 85 0 c69 0 85 3 85 15 0 12 -14 15 -65 15 l-65
0 0 40 0 40 60 0 c47 0 60 3 60 15 0 12 -13 15 -60 15 l-60 0 0 30 0 30 60 0
c47 0 60 3 60 15 0 12 -16 15 -80 15 l-80 0 0 -115z"/>
<path d="M10760 2085 c0 -108 1 -115 20 -115 18 0 20 7 20 83 l0 82 81 -82
c45 -46 88 -83 95 -83 11 0 14 24 14 115 0 108 -1 115 -20 115 -18 0 -20 -7
-20 -82 l0 -83 -81 83 c-45 45 -88 82 -95 82 -11 0 -14 -24 -14 -115z"/>
<path d="M11030 2085 l0 -115 85 0 c69 0 85 3 85 15 0 12 -14 15 -65 15 l-65
0 0 40 0 40 60 0 c47 0 60 3 60 15 0 12 -13 15 -60 15 l-60 0 0 30 0 30 60 0
c47 0 60 3 60 15 0 12 -16 15 -80 15 l-80 0 0 -115z"/>
<path d="M11230 2085 c0 -108 1 -115 20 -115 17 0 20 7 20 40 0 39 1 40 35 40
30 0 37 -5 55 -40 14 -27 27 -40 40 -40 20 0 20 0 0 40 l-21 41 21 26 c28 36
26 77 -6 102 -21 17 -41 21 -95 21 l-69 0 0 -115z"/>
<path d="M11537 2193 c-7 -11 -97 -215 -97 -219 0 -2 9 -4 20 -4 12 0 25 10
32 25 10 22 17 25 69 25 54 0 59 -2 65 -25 4 -18 13 -25 30 -25 13 0 24 1 24
3 0 1 -22 52 -48 112 -37 84 -54 111 -69 113 -12 2 -23 0 -26 -5z"/>
<path d="M12044 2190 c-34 -13 -74 -69 -74 -102 0 -62 59 -118 125 -118 64 0
125 56 125 115 0 79 -97 137 -176 105z m89 -31 c25 -11 47 -47 47 -74 0 -68
-89 -110 -137 -65 -41 38 -42 92 -1 130 24 22 55 25 91 9z"/>
<path d="M12250 2085 c0 -108 1 -115 20 -115 18 0 20 7 20 83 l0 82 81 -82
c45 -46 88 -83 95 -83 11 0 14 24 14 115 0 108 -1 115 -20 115 -18 0 -20 -7
-20 -82 l0 -83 -81 83 c-45 45 -88 82 -95 82 -11 0 -14 -24 -14 -115z"/>
</g>
</svg>
